<?xml version="1.0"?>
<svg version="1.1" xmlns="http://www.w3.org/2000/svg" width="170" height="40"><path fill="#000000" d="M29.225,17.5l-1.55,0l0,1.85q0,2.3-1.6,3.85q-1.575,1.5-3.75,1.5q-2.325,0-3.825-1.5t-1.5-3.85l0-1.85l-1.55,0l0,1.85q0,2.8,1.7,4.75q1.675,1.975,4.25,2.15l0,8.775l1.575,0l0-8.775q2.625-0.2,4.425-2.15q1.825-1.95,1.825-4.75l0-1.85z M39.296,17.5q-2.825,0-4.85,2.025q-2.05,2.05-2.05,4.875l0,3.775q0,2.775,2.05,4.825t4.85,2.05q2.825,0,4.875-2.05q2.025-2.025,2.025-4.825l0-3.775q0-2.85-2.025-4.875t-4.875-2.025z M44.646,24.4l0,3.775q0,2.275-1.6,3.825q-1.575,1.5-3.75,1.5t-3.725-1.5q-1.6-1.55-1.6-3.825l0-3.775q0-2.1,1.6-3.75q1.6-1.6,3.725-1.6q2.1,0,3.75,1.6q1.6,1.65,1.6,3.75z M63.692,17.475l-1.575,0l0,10.675q0,2.3-1.6,3.85q-1.575,1.5-3.75,1.5q-2.375,0-3.825-1.5q-1.475-1.525-1.475-3.85l0-10.675l-1.6,0l0,10.675q0,2.85,1.95,4.85q1.975,2.05,4.95,2.05q2.775,0,4.875-2.05q2.05-2,2.05-4.85l0-10.675z M75.088,26.225l1.875,0q1.9,0,3.15-1.25t1.25-3.15q0-1.675-1.25-3q-1.325-1.375-3.15-1.375l-7.825,0l-1.55,0l0,17.55l1.55,0l0-8.775l4.075,0l5.325,8.775l1.875,0z M69.138,24.675l0-5.65l7.825,0q1.15,0,2.025,0.825q0.825,0.825,0.825,1.975q0,1.2-0.825,2.025q-0.875,0.825-2.025,0.825l-7.825,0z M93.505,35.05l12.225,0l0-1.275l-10.675,0l0-16.275l-1.55,0l0,17.55z M115.376,17.5q-2.825,0-4.85,2.025q-2.05,2.05-2.05,4.875l0,3.775q0,2.775,2.05,4.825t4.85,2.05q2.825,0,4.875-2.05q2.025-2.025,2.025-4.825l0-3.775q0-2.85-2.025-4.875t-4.875-2.025z M120.726,24.4l0,3.775q0,2.275-1.6,3.825q-1.575,1.5-3.75,1.5t-3.725-1.5q-1.6-1.55-1.6-3.825l0-3.775q0-2.1,1.6-3.75q1.6-1.6,3.725-1.6q2.1,0,3.75,1.6q1.6,1.65,1.6,3.75z M134.297,19l4.825,0l0-1.575l-4.825,0q-3.6,0-6.1,2.55q-2.525,2.575-2.525,6.425q0,3.575,2.525,6.1t6.1,2.525l3.2,0l1.625,0l0-1.6l0-8l-1.625,0l-3.825,0l0,1.6l3.825,0l0,6.4l-3.2,0q-2.85,0-4.925-2.075t-2.075-4.95q0-3.125,2.075-5.275q2.05-2.125,4.925-2.125z M149.568,17.5q-2.825,0-4.85,2.025q-2.05,2.05-2.05,4.875l0,3.775q0,2.775,2.05,4.825t4.85,2.05q2.825,0,4.875-2.05q2.025-2.025,2.025-4.825l0-3.775q0-2.85-2.025-4.875t-4.875-2.025z M154.918,24.4l0,3.775q0,2.275-1.6,3.825q-1.575,1.5-3.75,1.5t-3.725-1.5q-1.6-1.55-1.6-3.825l0-3.775q0-2.1,1.6-3.75q1.6-1.6,3.725-1.6q2.1,0,3.75,1.6q1.6,1.65,1.6,3.75z"/><path fill="#" d=""/></svg>
